<svg class="svg-icon" style="width: 1em; height: 1em;vertical-align: middle;fill: currentColor;overflow: hidden;" viewBox="0 0 1024 1024" version="1.1" xmlns="http://www.w3.org/2000/svg"><path d="M457.638905 512.451278 75.857688 894.232494c-14.981203 14.981203-15.108093 39.529295-0.045025 54.591339 15.167444 15.167444 39.503712 15.042601 54.591339-0.045025l381.781216-381.781216 381.78224 381.781216c14.981203 14.981203 39.529295 15.108093 54.591339 0.045025 15.167444-15.167444 15.042601-39.503712-0.045025-54.591339L566.732555 512.451278 948.513772 130.669038c14.981203-14.981203 15.107069-39.529295 0.045025-54.591339-15.168468-15.167444-39.504736-15.042601-54.591339 0.045025L512.186242 457.904964 130.404002 76.122725c-14.981203-14.981203-39.529295-15.107069-54.591339-0.045025-15.167444 15.168468-15.042601 39.504736 0.045025 54.591339L457.638905 512.451278z"  /></svg>